<svg width="18" height="13" viewBox="0 0 18 13" fill="none" xmlns="http://www.w3.org/2000/svg">
<path fill-rule="evenodd" clip-rule="evenodd" d="M12.2671 11.6174C12.7295 12.199 13.2843 12.8571 13.2843 12.8571C16.6901 12.75 18 10.5306 18 10.5306C18 5.60211 15.7808 1.60725 15.7808 1.60725C13.5617 -0.0457904 11.4503 0.000127194 11.4503 0.000127194L11.2346 0.245023C13.8545 1.04093 15.0719 2.18888 15.0719 2.18888C13.4692 1.31644 11.8973 0.887874 10.4332 0.719509C9.32364 0.597061 8.26028 0.627673 7.32021 0.750121C7.23949 0.750121 7.17051 0.761786 7.09277 0.774932C7.08146 0.776845 7.06997 0.778788 7.05822 0.780732C6.51884 0.82665 5.20891 1.02563 3.55993 1.74501C2.98973 2.00521 2.65069 2.18888 2.65069 2.18888C2.65069 2.18888 3.9298 0.97971 6.70377 0.183799L6.54966 0.000127194C6.54966 0.000127194 4.43836 -0.0457904 2.21918 1.60725C2.21918 1.60725 0 5.60211 0 10.5306C0 10.5306 1.29452 12.75 4.70035 12.8571C4.70035 12.8571 5.27055 12.1684 5.73288 11.5868C3.77569 11.0051 3.03596 9.78065 3.03596 9.78065C3.03596 9.78065 3.19007 9.88779 3.46747 10.0408C3.48288 10.0562 3.49829 10.0715 3.52911 10.0868C3.55223 10.1021 3.57535 10.1136 3.59846 10.125C3.62158 10.1365 3.64469 10.148 3.66781 10.1633C4.05308 10.3776 4.43836 10.5459 4.79281 10.6837C5.42466 10.9286 6.1798 11.1735 7.05822 11.3419C8.21405 11.5561 9.57021 11.6327 11.0497 11.3572C11.774 11.2347 12.5137 11.0204 13.2843 10.699C13.8236 10.5 14.4247 10.2092 15.0565 9.79595C15.0565 9.79595 14.286 11.051 12.2671 11.6174ZM4.54614 7.40828C4.54614 6.47461 5.23964 5.70931 6.11806 5.70931C6.99649 5.70931 7.70539 6.47461 7.68998 7.40828C7.68998 8.34194 6.99649 9.10724 6.11806 9.10724C5.25505 9.10724 4.54614 8.34194 4.54614 7.40828ZM10.1711 7.40828C10.1711 6.47461 10.8646 5.70931 11.7431 5.70931C12.6215 5.70931 13.315 6.47461 13.315 7.40828C13.315 8.34194 12.6215 9.10724 11.7431 9.10724C10.8801 9.10724 10.1711 8.34194 10.1711 7.40828Z" fill="white"/>
</svg>
